<svg xmlns="http://www.w3.org/2000/svg" viewBox="0 0 112.99 25.35"><g id="Layer_2" data-name="Layer 2"><g id="Layer_1-2" data-name="Layer 1"><path d="M28.4,14.13a1,1,0,0,0,.21-1.4L19.66.6c-.33-.44-.73-.7-.91-.57l-.32.23-.81.59L13.79,3.67a1,1,0,0,0-.21,1.4l.66.89a1,1,0,0,0,1.4.21l2-1.44a1,1,0,0,1,1.4.21l5.27,7.15a1,1,0,0,1-.21,1.4l-2,1.44a1,1,0,0,0-.21,1.4l.66.89a1,1,0,0,0,1.4.21l2-1.44,1.61-1.19Z" fill="#0766f7"/><path d="M21.52,17.74l-1.19-1.61-2.15-2.92L17,11.6l-.74-1a1,1,0,0,0-1.4-.21l-3.17,2.34a1,1,0,0,0-.21,1.4l.74,1a1,1,0,0,0,1.4.21l.7-.52a1,1,0,0,1,1.4.21l1.51,2a1,1,0,0,1-.21,1.4l-2.67,2a1,1,0,0,1-1.4-.21l-8.15-11A1,1,0,0,1,5,7.79l2.68-2A1,1,0,0,1,9.08,6L11,8.6a1,1,0,0,0,1.4.21l.86-.63a1,1,0,0,0,.21-1.4l-1.9-2.57C11.22,3.77,11,3.4,11,3.4s-.27-.36-.59-.81L9.53,1.45a1,1,0,0,0-1.4-.21L3,5l-.8.59-.8.59-1,.72A1,1,0,0,0,.2,8.33L1,9.47l1.19,1.61L12.45,24.94a1,1,0,0,0,1.4.21l1-.72a9.29,9.29,0,0,0,.78-.62,6.13,6.13,0,0,1,.78-.62l5.14-3.79a1,1,0,0,0,.21-1.4Z" fill="#0766f7"/><path d="M39.9,7v4.19H38.69l0-1a2.6,2.6,0,0,1-2.34,1.07,3.75,3.75,0,0,1-1.92-.48,3.25,3.25,0,0,1-1.29-1.4,4.78,4.78,0,0,1-.46-2.19A4.8,4.8,0,0,1,33.11,5a3.37,3.37,0,0,1,1.35-1.42,4.68,4.68,0,0,1,4.13,0,3.12,3.12,0,0,1,1.27,1.48l-1.52.66a1.64,1.64,0,0,0-.65-.93,2,2,0,0,0-1.15-.32,2,2,0,0,0-1.61.71,3.12,3.12,0,0,0-.57,2,3.15,3.15,0,0,0,.56,2.05,2,2,0,0,0,1.66.7,2.16,2.16,0,0,0,1.36-.4,1.37,1.37,0,0,0,.53-1.17V8.18H36.16V7Z" fill="#0766f7"/><path d="M47.82,9.81v1.33H41.71V3.22h5.94V4.55H43.37v2h3.37V7.79H43.37v2Z" fill="#0766f7"/><path d="M56.11,11.14H54.22L51.44,6.49l-.68-1.34h0l0,1.41v4.58H49.31V3.22h1.88L54,7.87l.69,1.34h0l-.05-1.4V3.22h1.49Z" fill="#0766f7"/><path d="M64.12,4.25a4,4,0,0,1,1,2.93,4,4,0,0,1-1,2.93,3.9,3.9,0,0,1-2.89,1h-3V3.22h3A3.94,3.94,0,0,1,64.12,4.25ZM62.85,9.14a3,3,0,0,0,.57-2,3,3,0,0,0-.57-2,2.11,2.11,0,0,0-1.7-.68H59.83V9.82h1.32A2.08,2.08,0,0,0,62.85,9.14Z" fill="#0766f7"/><path d="M72.91,9.81v1.33H66.8V3.22h5.94V4.55H68.46v2h3.37V7.79H68.46v2Z" fill="#0766f7"/><path d="M77.52,8.11H76v3H74.4V3.22h3.49A3.25,3.25,0,0,1,80,3.86a2.23,2.23,0,0,1,.76,1.81,2.37,2.37,0,0,1-.42,1.43,2.35,2.35,0,0,1-1.2.83l2.09,3.21H79.38ZM76,6.85h1.65a1.64,1.64,0,0,0,1.06-.29,1,1,0,0,0,.34-.87,1.06,1.06,0,0,0-.34-.87,1.7,1.7,0,0,0-1.06-.28H76Z" fill="#0766f7"/><path d="M88,10.68a3.76,3.76,0,0,1-2.12.58,4,4,0,0,1-2-.49,3.3,3.3,0,0,1-1.33-1.41,4.77,4.77,0,0,1-.46-2.18A4.8,4.8,0,0,1,82.54,5a3.33,3.33,0,0,1,1.32-1.41,4,4,0,0,1,2-.49,4,4,0,0,1,2.1.52,2.66,2.66,0,0,1,1.18,1.53l-1.5.64a1.88,1.88,0,0,0-.6-1,1.76,1.76,0,0,0-1.11-.31,1.87,1.87,0,0,0-1.57.71,3.12,3.12,0,0,0-.57,2,3.22,3.22,0,0,0,.55,2,1.88,1.88,0,0,0,1.56.71A1.72,1.72,0,0,0,87.73,8.5L89.26,9A3.09,3.09,0,0,1,88,10.68Z" fill="#0766f7"/><path d="M95.17,9.21h-3l-.65,1.93H89.78l2.9-7.92h2l2.89,7.92H95.83ZM94.76,8,94,5.75l-.36-1.2h0L93.3,5.73,92.53,8Z" fill="#0766f7"/><path d="M101.84,8.11h-1.49v3H98.72V3.22h3.49a3.23,3.23,0,0,1,2.12.64,2.23,2.23,0,0,1,.76,1.81,2.37,2.37,0,0,1-.42,1.43,2.35,2.35,0,0,1-1.2.83l2.09,3.21H103.7Zm-1.49-1.26H102a1.64,1.64,0,0,0,1.06-.29,1,1,0,0,0,.34-.87,1.06,1.06,0,0,0-.34-.87A1.7,1.7,0,0,0,102,4.54h-1.65Z" fill="#0766f7"/><path d="M113,9.81v1.33h-6.11V3.22h5.94V4.55h-4.28v2h3.37V7.79h-3.37v2Z" fill="#0766f7"/><path d="M33.5,20.81V15.53h1.88a2,2,0,0,1,1.37.39A1.37,1.37,0,0,1,37.18,17a1.19,1.19,0,0,1-.23.72,1,1,0,0,1-.66.41h0a1.19,1.19,0,0,1,.75.43,1.16,1.16,0,0,1,.28.77,1.31,1.31,0,0,1-.51,1.08,2.23,2.23,0,0,1-1.44.4Zm.64-3h1.25c.75,0,1.12-.29,1.12-.86s-.37-.86-1.12-.86H34.14Zm0,2.36h1.39a1.3,1.3,0,0,0,.84-.23.79.79,0,0,0,.28-.65.78.78,0,0,0-.28-.65,1.3,1.3,0,0,0-.84-.23H34.14Z" fill="#0766f7"/><path d="M40.28,20.89a2,2,0,0,1-1-.25,1.63,1.63,0,0,1-.69-.71,2.63,2.63,0,0,1,0-2.24,1.67,1.67,0,0,1,.68-.71,2,2,0,0,1,1.94,0,1.63,1.63,0,0,1,.6.65,2,2,0,0,1,.21.93c0,.09,0,.17,0,.24a.94.94,0,0,1,0,.2H38.74v-.56h3l-.33.06a1.21,1.21,0,0,0-.32-.89,1.12,1.12,0,0,0-.83-.31,1.22,1.22,0,0,0-.67.18,1.13,1.13,0,0,0-.44.52,2.18,2.18,0,0,0,0,1.64,1.21,1.21,0,0,0,.45.52,1.33,1.33,0,0,0,.7.18,1.37,1.37,0,0,0,.72-.17,1.27,1.27,0,0,0,.44-.45l.51.29a1.61,1.61,0,0,1-.39.47,1.57,1.57,0,0,1-.55.31A2.25,2.25,0,0,1,40.28,20.89Z" fill="#0766f7"/><path d="M45.5,16.81v.55H42.61v-.55Zm-1.45-1.14v4a.57.57,0,0,0,.16.44.7.7,0,0,0,.44.14,1,1,0,0,0,.4-.08.89.89,0,0,0,.3-.22l.22.54a1.24,1.24,0,0,1-.43.26,1.5,1.5,0,0,1-.58.1,1.56,1.56,0,0,1-.57-.11.83.83,0,0,1-.42-.34,1.16,1.16,0,0,1-.16-.62v-4Z" fill="#0766f7"/><path d="M48.34,16.81v.55H45.45v-.55Zm-1.45-1.14v4a.54.54,0,0,0,.17.44.65.65,0,0,0,.43.14,1,1,0,0,0,.4-.08.89.89,0,0,0,.3-.22l.22.54a1.24,1.24,0,0,1-.43.26,1.5,1.5,0,0,1-.58.1,1.56,1.56,0,0,1-.57-.11.88.88,0,0,1-.42-.34,1.16,1.16,0,0,1-.16-.62v-4Z" fill="#0766f7"/><path d="M51,20.89a2,2,0,0,1-1-.25,1.75,1.75,0,0,1-.69-.71,2.63,2.63,0,0,1,0-2.24,1.79,1.79,0,0,1,.68-.71,1.92,1.92,0,0,1,1-.25,1.79,1.79,0,0,1,1,.24,1.59,1.59,0,0,1,.61.65,2,2,0,0,1,.21.93c0,.09,0,.17,0,.24s0,.15,0,.2H49.43v-.56h3l-.32.06a1.21,1.21,0,0,0-.32-.89,1.12,1.12,0,0,0-.83-.31,1.2,1.2,0,0,0-.67.18,1.13,1.13,0,0,0-.44.52,2.18,2.18,0,0,0,0,1.64,1.21,1.21,0,0,0,.45.52,1.33,1.33,0,0,0,.7.18,1.42,1.42,0,0,0,.72-.17,1.27,1.27,0,0,0,.44-.45l.51.29a2,2,0,0,1-.39.47,1.57,1.57,0,0,1-.55.31A2.3,2.3,0,0,1,51,20.89Z" fill="#0766f7"/><path d="M53.91,20.81v-4h.52l.09.66a1.17,1.17,0,0,1,.49-.56,1.62,1.62,0,0,1,.79-.18l.23,0a.65.65,0,0,1,.21.06l-.11.58-.2,0-.29,0a1.05,1.05,0,0,0-.5.14,1.19,1.19,0,0,0-.42.44,1.5,1.5,0,0,0-.17.74v2.16Z" fill="#0766f7"/><path d="M62,16.81v.55h-2.9v-.55ZM60.5,15.67v4a.57.57,0,0,0,.17.44.67.67,0,0,0,.43.14,1,1,0,0,0,.4-.08.93.93,0,0,0,.31-.22l.22.54a1.28,1.28,0,0,1-.44.26,1.6,1.6,0,0,1-1.14,0,.83.83,0,0,1-.42-.34,1.16,1.16,0,0,1-.17-.62v-4Z" fill="#0766f7"/><path d="M64.57,16.73a1.93,1.93,0,0,1,1,.25,1.67,1.67,0,0,1,.68.71,2.63,2.63,0,0,1,0,2.24,1.67,1.67,0,0,1-.68.71,2.13,2.13,0,0,1-2,0,1.63,1.63,0,0,1-.69-.71,2.63,2.63,0,0,1,0-2.24,1.63,1.63,0,0,1,.69-.71A1.93,1.93,0,0,1,64.57,16.73Zm0,.55a1.2,1.2,0,0,0-.7.19,1.13,1.13,0,0,0-.44.52,2.18,2.18,0,0,0,0,1.64,1.13,1.13,0,0,0,.44.52,1.37,1.37,0,0,0,1.39,0,1.21,1.21,0,0,0,.45-.52,2.32,2.32,0,0,0,0-1.64,1.21,1.21,0,0,0-.45-.52A1.19,1.19,0,0,0,64.57,17.28Z" fill="#0766f7"/><path d="M69.86,20.3a1.39,1.39,0,0,1,.89.26.85.85,0,0,1,.32.69,1,1,0,0,1-.26.68,1.59,1.59,0,0,1-.7.44,2.72,2.72,0,0,1-1,.16,2.56,2.56,0,0,1-1.41-.32.93.93,0,0,1-.47-.77.89.89,0,0,1,.22-.57,1,1,0,0,1,.71-.28l-.05.12a1,1,0,0,1-.46-.25.62.62,0,0,1-.19-.5.76.76,0,0,1,.24-.56,1.19,1.19,0,0,1,.73-.29l.42.21h-.08a.94.94,0,0,0-.56.2.49.49,0,0,0-.16.34.38.38,0,0,0,.16.33.87.87,0,0,0,.46.11Zm-.79-3.57a2.08,2.08,0,0,1,.85.17,1.46,1.46,0,0,1,.58.48,1.27,1.27,0,0,1,0,1.4,1.31,1.31,0,0,1-.58.48,1.93,1.93,0,0,1-.85.17,1.75,1.75,0,0,1-1.22-.38,1.24,1.24,0,0,1-.42-1,1.2,1.2,0,0,1,.21-.7,1.53,1.53,0,0,1,.58-.48A2.08,2.08,0,0,1,69.07,16.73ZM69.13,22a2.68,2.68,0,0,0,.76-.09,1.06,1.06,0,0,0,.44-.25.46.46,0,0,0,.15-.33.41.41,0,0,0-.17-.34,1.06,1.06,0,0,0-.62-.13H68.45A.69.69,0,0,0,68,21a.45.45,0,0,0-.17.37.53.53,0,0,0,.34.47A2,2,0,0,0,69.13,22Zm-.06-4.74a1.09,1.09,0,0,0-.7.23.78.78,0,0,0,0,1.2,1.18,1.18,0,0,0,1.4,0,.78.78,0,0,0,0-1.2A1.09,1.09,0,0,0,69.07,17.25Zm2-1.18.14.57h0a1,1,0,0,0-.61.16.58.58,0,0,0-.21.5L70,17.1a1.1,1.1,0,0,1,.14-.55,1,1,0,0,1,.39-.35,1.27,1.27,0,0,1,.55-.13h0Z" fill="#0766f7"/><path d="M73.64,20.89a2,2,0,0,1-1-.25,1.71,1.71,0,0,1-.7-.71,2.73,2.73,0,0,1,0-2.24,1.79,1.79,0,0,1,.68-.71,1.92,1.92,0,0,1,1-.25,1.79,1.79,0,0,1,1,.24,1.59,1.59,0,0,1,.61.65,2,2,0,0,1,.21.93c0,.09,0,.17,0,.24a.94.94,0,0,1,0,.2H72.1v-.56h3l-.32.06a1.21,1.21,0,0,0-.32-.89,1.12,1.12,0,0,0-.83-.31,1.22,1.22,0,0,0-.67.18,1.13,1.13,0,0,0-.44.52,2.18,2.18,0,0,0,0,1.64,1.21,1.21,0,0,0,.45.52,1.33,1.33,0,0,0,.7.18,1.39,1.39,0,0,0,.72-.17,1.27,1.27,0,0,0,.44-.45l.51.29a1.78,1.78,0,0,1-.39.47,1.57,1.57,0,0,1-.55.31A2.25,2.25,0,0,1,73.64,20.89Z" fill="#0766f7"/><path d="M78.86,16.81v.55H76v-.55Zm-1.45-1.14v4a.57.57,0,0,0,.16.44.7.7,0,0,0,.44.14,1,1,0,0,0,.4-.08.89.89,0,0,0,.3-.22l.22.54a1.24,1.24,0,0,1-.43.26,1.5,1.5,0,0,1-.58.1,1.56,1.56,0,0,1-.57-.11.83.83,0,0,1-.42-.34,1.16,1.16,0,0,1-.16-.62v-4Z" fill="#0766f7"/><path d="M79.81,20.81V15h.64v2.44a1.27,1.27,0,0,1,.56-.52,1.71,1.71,0,0,1,.75-.16,1.94,1.94,0,0,1,.78.16,1.32,1.32,0,0,1,.57.5,1.61,1.61,0,0,1,.21.86v2.56h-.64V18.47a1.2,1.2,0,0,0-.29-.92,1,1,0,0,0-.7-.26,1.33,1.33,0,0,0-.57.14,1.18,1.18,0,0,0-.48.44,1.63,1.63,0,0,0-.19.82v2.12Z" fill="#0766f7"/><path d="M86.44,20.89a2,2,0,0,1-1-.25,1.71,1.71,0,0,1-.7-.71,2.73,2.73,0,0,1,0-2.24,1.79,1.79,0,0,1,.68-.71,1.92,1.92,0,0,1,1-.25,1.79,1.79,0,0,1,.95.24,1.59,1.59,0,0,1,.61.65,2,2,0,0,1,.21.93c0,.09,0,.17,0,.24s0,.15,0,.2H84.9v-.56h2.95l-.32.06a1.21,1.21,0,0,0-.32-.89,1.12,1.12,0,0,0-.83-.31,1.22,1.22,0,0,0-.67.18,1.13,1.13,0,0,0-.44.52,2.18,2.18,0,0,0,0,1.64,1.21,1.21,0,0,0,.45.52,1.33,1.33,0,0,0,.7.18,1.39,1.39,0,0,0,.72-.17,1.27,1.27,0,0,0,.44-.45l.51.29a1.78,1.78,0,0,1-.39.47,1.57,1.57,0,0,1-.55.31A2.25,2.25,0,0,1,86.44,20.89Z" fill="#0766f7"/><path d="M89.38,20.81v-4h.52l.09.66a1.22,1.22,0,0,1,.49-.56,1.62,1.62,0,0,1,.79-.18l.23,0a.65.65,0,0,1,.21.06l-.11.58-.19,0-.3,0a1.08,1.08,0,0,0-.5.14,1.19,1.19,0,0,0-.42.44,1.5,1.5,0,0,0-.17.74v2.16Z" fill="#0766f7"/></g></g></svg>