<svg xmlns="http://www.w3.org/2000/svg" viewBox="0 0 114.4 25.35"><g id="Layer_2" data-name="Layer 2"><g id="Layer_1-2" data-name="Layer 1"><path d="M28.4,14.13a1,1,0,0,0,.21-1.4L19.66.6c-.33-.44-.73-.7-.91-.57l-.32.23-.81.59L13.79,3.67a1,1,0,0,0-.21,1.4l.66.89a1,1,0,0,0,1.4.21l2-1.44a1,1,0,0,1,1.4.21l5.27,7.15a1,1,0,0,1-.21,1.4l-2,1.44a1,1,0,0,0-.21,1.4l.66.89a1,1,0,0,0,1.4.21l2-1.44,1.61-1.19Z" fill="#fff"/><path d="M21.52,17.74l-1.19-1.61-2.15-2.92L17,11.6l-.74-1a1,1,0,0,0-1.4-.21l-3.17,2.34a1,1,0,0,0-.21,1.4l.74,1a1,1,0,0,0,1.4.21l.7-.52a1,1,0,0,1,1.4.21l1.51,2a1,1,0,0,1-.21,1.4l-2.67,2a1,1,0,0,1-1.4-.21l-8.15-11A1,1,0,0,1,5,7.79l2.68-2A1,1,0,0,1,9.08,6L11,8.6a1,1,0,0,0,1.4.21l.86-.63a1,1,0,0,0,.21-1.4l-1.9-2.57C11.22,3.77,11,3.4,11,3.4s-.27-.36-.59-.81L9.53,1.45a1,1,0,0,0-1.4-.21L3,5l-.8.59-.8.59-1,.72A1,1,0,0,0,.2,8.33L1,9.47l1.19,1.61L12.45,24.94a1,1,0,0,0,1.4.21l1-.72a9.29,9.29,0,0,0,.78-.62,6.13,6.13,0,0,1,.78-.62l5.14-3.79a1,1,0,0,0,.21-1.4Z" fill="#fff"/><path d="M41.31,7.6v4.19H40.09l0-.95a2.62,2.62,0,0,1-2.34,1.07,3.75,3.75,0,0,1-1.92-.48A3.19,3.19,0,0,1,34.51,10a4.78,4.78,0,0,1-.46-2.19,4.64,4.64,0,0,1,.47-2.18,3.29,3.29,0,0,1,1.34-1.42,4.05,4.05,0,0,1,2-.49A4.17,4.17,0,0,1,40,4.22a3.16,3.16,0,0,1,1.28,1.47l-1.53.66a1.66,1.66,0,0,0-.65-.93A2,2,0,0,0,38,5.11a2,2,0,0,0-1.61.7,3.12,3.12,0,0,0-.58,2,3.17,3.17,0,0,0,.57,2.05,2,2,0,0,0,1.65.7,2.25,2.25,0,0,0,1.37-.4A1.39,1.39,0,0,0,39.88,9V8.83H37.56V7.6Z" fill="#fff"/><path d="M49.22,10.46v1.33h-6.1V3.87h5.94V5.2H44.77v2h3.37V8.44H44.77v2Z" fill="#fff"/><path d="M57.52,11.79h-1.9L52.85,7.13,52.16,5.8h0l.05,1.41v4.58H50.71V3.87H52.6l2.77,4.64.68,1.35h0l0-1.41V3.87h1.49Z" fill="#fff"/><path d="M65.52,4.9a4,4,0,0,1,1,2.93,4,4,0,0,1-1,2.93,3.86,3.86,0,0,1-2.88,1H59.58V3.87h3.06A3.86,3.86,0,0,1,65.52,4.9ZM64.25,9.79a3,3,0,0,0,.57-2,3,3,0,0,0-.57-2,2.09,2.09,0,0,0-1.69-.68H61.24v5.28h1.32A2.09,2.09,0,0,0,64.25,9.79Z" fill="#fff"/><path d="M74.32,10.46v1.33H68.21V3.87h5.94V5.2H69.86v2h3.38V8.44H69.86v2Z" fill="#fff"/><path d="M78.92,8.75H77.44v3H75.81V3.87H79.3a3.15,3.15,0,0,1,2.11.64,2.24,2.24,0,0,1,.77,1.81,2.37,2.37,0,0,1-.42,1.43,2.28,2.28,0,0,1-1.2.82l2.08,3.22H80.79ZM77.44,7.49h1.64a1.64,1.64,0,0,0,1.06-.28,1.06,1.06,0,0,0,.34-.87,1.06,1.06,0,0,0-.34-.87,1.64,1.64,0,0,0-1.06-.28H77.44Z" fill="#fff"/><path d="M89.43,11.33a3.82,3.82,0,0,1-2.13.58,4,4,0,0,1-2-.49A3.27,3.27,0,0,1,84,10a4.77,4.77,0,0,1-.46-2.18A4.77,4.77,0,0,1,84,5.65a3.22,3.22,0,0,1,1.32-1.41,4.41,4.41,0,0,1,4.1,0A2.62,2.62,0,0,1,90.55,5.8l-1.5.64a1.82,1.82,0,0,0-.6-1,1.75,1.75,0,0,0-1.1-.31,1.92,1.92,0,0,0-1.58.7,3.17,3.17,0,0,0-.57,2,3.3,3.3,0,0,0,.55,2,1.87,1.87,0,0,0,1.56.7,1.72,1.72,0,0,0,1.83-1.4l1.52.46A3,3,0,0,1,89.43,11.33Z" fill="#fff"/><path d="M96.58,9.86h-3l-.65,1.93H91.19l2.89-7.92h2L99,11.79H97.24Zm-.41-1.23L95.42,6.4l-.36-1.2h0L94.7,6.38l-.76,2.25Z" fill="#fff"/><path d="M103.25,8.75h-1.49v3h-1.63V3.87h3.49a3.19,3.19,0,0,1,2.12.64,2.23,2.23,0,0,1,.76,1.81,2.37,2.37,0,0,1-.42,1.43,2.28,2.28,0,0,1-1.2.82L107,11.79h-1.86Zm-1.49-1.26h1.64a1.67,1.67,0,0,0,1.07-.28,1.09,1.09,0,0,0,.34-.87,1.09,1.09,0,0,0-.34-.87,1.67,1.67,0,0,0-1.07-.28h-1.64Z" fill="#fff"/><path d="M114.4,10.46v1.33h-6.11V3.87h5.94V5.2h-4.29v2h3.38V8.44h-3.38v2Z" fill="#fff"/><path d="M34.91,21.46V16.18h1.88a2,2,0,0,1,1.37.39,1.39,1.39,0,0,1,.43,1.06,1.26,1.26,0,0,1-.23.73,1.09,1.09,0,0,1-.66.41h0a1.21,1.21,0,0,1,.75.43,1.19,1.19,0,0,1,.27.77,1.27,1.27,0,0,1-.5,1.07,2.26,2.26,0,0,1-1.44.41Zm.64-3H36.8c.74,0,1.12-.29,1.12-.87s-.38-.85-1.12-.85H35.55Zm0,2.36h1.38a1.35,1.35,0,0,0,.85-.23.82.82,0,0,0,.27-.65.8.8,0,0,0-.27-.65,1.29,1.29,0,0,0-.85-.23H35.55Z" fill="#fff"/><path d="M41.68,21.54a2,2,0,0,1-1-.25,1.72,1.72,0,0,1-.69-.72,2.39,2.39,0,0,1-.25-1.11A2.44,2.44,0,0,1,40,18.34a1.73,1.73,0,0,1,.68-.71,1.91,1.91,0,0,1,1-.25,1.8,1.8,0,0,1,1,.24,1.5,1.5,0,0,1,.6.65,2,2,0,0,1,.21.92v.25c0,.08,0,.14,0,.2H40.15v-.57h3l-.33.07a1.19,1.19,0,0,0-.31-.89,1.12,1.12,0,0,0-.83-.31,1.25,1.25,0,0,0-.68.18,1.19,1.19,0,0,0-.44.52,2,2,0,0,0-.15.82,1.83,1.83,0,0,0,.16.81,1.12,1.12,0,0,0,.45.53,1.3,1.3,0,0,0,.7.18,1.42,1.42,0,0,0,.72-.17,1.22,1.22,0,0,0,.44-.46l.5.3a1.61,1.61,0,0,1-.39.47,1.49,1.49,0,0,1-.55.31A2.2,2.2,0,0,1,41.68,21.54Z" fill="#fff"/><path d="M46.91,17.46V18H44v-.55Zm-1.46-1.14v4a.54.54,0,0,0,.17.44.63.63,0,0,0,.43.15,1,1,0,0,0,.4-.08,1.1,1.1,0,0,0,.31-.22l.22.54a1.28,1.28,0,0,1-.44.26,1.6,1.6,0,0,1-1.14,0,.89.89,0,0,1-.42-.34,1.16,1.16,0,0,1-.17-.62v-4Z" fill="#fff"/><path d="M49.75,17.46V18h-2.9v-.55Zm-1.46-1.14v4a.54.54,0,0,0,.17.44.63.63,0,0,0,.43.15,1,1,0,0,0,.4-.08,1.1,1.1,0,0,0,.31-.22l.22.54a1.28,1.28,0,0,1-.44.26,1.45,1.45,0,0,1-.57.1,1.48,1.48,0,0,1-.57-.11.89.89,0,0,1-.42-.34,1.16,1.16,0,0,1-.17-.62v-4Z" fill="#fff"/><path d="M52.37,21.54a2,2,0,0,1-1-.25,1.6,1.6,0,0,1-.69-.72,2.28,2.28,0,0,1-.25-1.11,2.32,2.32,0,0,1,.25-1.12,1.67,1.67,0,0,1,.68-.71,1.88,1.88,0,0,1,1-.25,1.82,1.82,0,0,1,1,.24,1.63,1.63,0,0,1,.6.65,2,2,0,0,1,.21.92,1.85,1.85,0,0,1,0,.25,1.12,1.12,0,0,1,0,.2H50.84v-.57h2.95l-.33.07a1.16,1.16,0,0,0-.32-.89,1.1,1.1,0,0,0-.82-.31,1.25,1.25,0,0,0-.68.18,1.19,1.19,0,0,0-.44.52,2,2,0,0,0-.16.82,2,2,0,0,0,.16.81,1.2,1.2,0,0,0,.46.53,1.28,1.28,0,0,0,.7.18,1.36,1.36,0,0,0,.71-.17,1.17,1.17,0,0,0,.45-.46l.5.3a1.61,1.61,0,0,1-.39.47,1.49,1.49,0,0,1-.55.31A2.25,2.25,0,0,1,52.37,21.54Z" fill="#fff"/><path d="M55.32,21.46v-4h.52l.08.65a1.22,1.22,0,0,1,.5-.55,1.58,1.58,0,0,1,.78-.18h.23a.86.86,0,0,1,.21.07l-.11.58L57.34,18H57a1.08,1.08,0,0,0-.5.14,1.27,1.27,0,0,0-.42.44,1.48,1.48,0,0,0-.16.74v2.16Z" fill="#fff"/><path d="M63.36,17.46V18H60.47v-.55Zm-1.45-1.14v4a.51.51,0,0,0,.17.44.61.61,0,0,0,.43.15,1,1,0,0,0,.4-.08,1.05,1.05,0,0,0,.3-.22l.23.54a1.39,1.39,0,0,1-.44.26,1.5,1.5,0,0,1-.58.1,1.56,1.56,0,0,1-.57-.11,1,1,0,0,1-.42-.34,1.16,1.16,0,0,1-.16-.62v-4Z" fill="#fff"/><path d="M66,17.38a2,2,0,0,1,1,.25,1.67,1.67,0,0,1,.68.71,2.32,2.32,0,0,1,.25,1.12,2.28,2.28,0,0,1-.25,1.11,1.64,1.64,0,0,1-.68.72,2.15,2.15,0,0,1-2,0,1.72,1.72,0,0,1-.69-.72A2.39,2.39,0,0,1,64,19.46a2.44,2.44,0,0,1,.24-1.12,1.75,1.75,0,0,1,.69-.71A2,2,0,0,1,66,17.38Zm0,.55a1.27,1.27,0,0,0-.69.18,1.23,1.23,0,0,0-.45.53,2,2,0,0,0-.15.82,2,2,0,0,0,.15.81,1.18,1.18,0,0,0,.45.53A1.19,1.19,0,0,0,66,21a1.22,1.22,0,0,0,.7-.19,1.16,1.16,0,0,0,.44-.53,1.83,1.83,0,0,0,.16-.81,1.88,1.88,0,0,0-.16-.82,1.21,1.21,0,0,0-.44-.53A1.3,1.3,0,0,0,66,17.93Z" fill="#fff"/><path d="M71.27,21a1.35,1.35,0,0,1,.89.26.85.85,0,0,1,.32.69,1,1,0,0,1-.26.68,1.71,1.71,0,0,1-.7.44,2.76,2.76,0,0,1-1,.16,2.53,2.53,0,0,1-1.41-.32.94.94,0,0,1-.47-.77.87.87,0,0,1,.21-.57,1,1,0,0,1,.72-.29l-.06.12a1.07,1.07,0,0,1-.46-.24.65.65,0,0,1-.19-.5.75.75,0,0,1,.25-.56,1.2,1.2,0,0,1,.72-.3l.43.22H70.2a.92.92,0,0,0-.56.2.44.44,0,0,0-.16.34.36.36,0,0,0,.16.33.84.84,0,0,0,.46.11Zm-.79-3.57a2.08,2.08,0,0,1,.85.17,1.31,1.31,0,0,1,.58.48,1.18,1.18,0,0,1,.21.7,1.23,1.23,0,0,1-.21.7,1.31,1.31,0,0,1-.58.48,1.93,1.93,0,0,1-.85.17,1.73,1.73,0,0,1-1.22-.38,1.24,1.24,0,0,1-.42-1,1.18,1.18,0,0,1,.21-.7,1.31,1.31,0,0,1,.58-.48A2,2,0,0,1,70.48,17.38Zm0,5.26a2.76,2.76,0,0,0,.77-.09,1.13,1.13,0,0,0,.44-.25.45.45,0,0,0,.14-.33.38.38,0,0,0-.17-.34,1,1,0,0,0-.62-.13H69.86a.69.69,0,0,0-.43.13.43.43,0,0,0-.18.36.55.55,0,0,0,.34.48A2.19,2.19,0,0,0,70.53,22.64Zm0-4.74a1,1,0,0,0-.7.23.78.78,0,0,0,0,1.2,1,1,0,0,0,.7.23,1,1,0,0,0,.69-.23.78.78,0,0,0,0-1.2A1,1,0,0,0,70.48,17.9Zm2-1.18.15.57h-.06a1,1,0,0,0-.6.16.58.58,0,0,0-.21.5l-.4-.2a1,1,0,0,1,.15-.55.94.94,0,0,1,.39-.35,1.13,1.13,0,0,1,.54-.13h0Z" fill="#fff"/><path d="M75,21.54a2,2,0,0,1-1-.25,1.72,1.72,0,0,1-.69-.72,2.28,2.28,0,0,1-.25-1.11,2.32,2.32,0,0,1,.25-1.12,1.73,1.73,0,0,1,.68-.71,1.91,1.91,0,0,1,1-.25,1.8,1.8,0,0,1,1,.24,1.56,1.56,0,0,1,.6.65,2,2,0,0,1,.21.92,1.85,1.85,0,0,1,0,.25,1.12,1.12,0,0,1,0,.2H73.51v-.57h2.95l-.33.07a1.19,1.19,0,0,0-.31-.89,1.12,1.12,0,0,0-.83-.31,1.25,1.25,0,0,0-.68.18,1.19,1.19,0,0,0-.44.52,2,2,0,0,0-.15.82,1.83,1.83,0,0,0,.16.81,1.12,1.12,0,0,0,.45.53A1.3,1.3,0,0,0,75,21a1.36,1.36,0,0,0,.71-.17,1.17,1.17,0,0,0,.45-.46l.5.3a1.61,1.61,0,0,1-.39.47,1.49,1.49,0,0,1-.55.31A2.2,2.2,0,0,1,75,21.54Z" fill="#fff"/><path d="M80.27,17.46V18h-2.9v-.55Zm-1.46-1.14v4a.54.54,0,0,0,.17.44.63.63,0,0,0,.43.15,1,1,0,0,0,.4-.08,1.1,1.1,0,0,0,.31-.22l.22.54a1.28,1.28,0,0,1-.44.26,1.6,1.6,0,0,1-1.14,0,.89.89,0,0,1-.42-.34,1.16,1.16,0,0,1-.17-.62v-4Z" fill="#fff"/><path d="M81.22,21.46V15.62h.64v2.44a1.2,1.2,0,0,1,.55-.52,1.71,1.71,0,0,1,.75-.16,1.86,1.86,0,0,1,.79.16,1.35,1.35,0,0,1,.56.5,1.61,1.61,0,0,1,.21.86v2.56h-.64V19.12a1.21,1.21,0,0,0-.28-.92,1,1,0,0,0-.7-.26,1.39,1.39,0,0,0-.58.13,1.07,1.07,0,0,0-.47.45,1.51,1.51,0,0,0-.19.82v2.12Z" fill="#fff"/><path d="M87.84,21.54a2,2,0,0,1-1-.25,1.72,1.72,0,0,1-.69-.72,2.28,2.28,0,0,1-.25-1.11,2.32,2.32,0,0,1,.25-1.12,1.73,1.73,0,0,1,.68-.71,1.91,1.91,0,0,1,1-.25,1.8,1.8,0,0,1,1,.24,1.56,1.56,0,0,1,.6.65,2,2,0,0,1,.21.92,1.85,1.85,0,0,1,0,.25,1.12,1.12,0,0,1,0,.2H86.31v-.57h3l-.33.07a1.19,1.19,0,0,0-.31-.89,1.12,1.12,0,0,0-.83-.31,1.25,1.25,0,0,0-.68.18,1.19,1.19,0,0,0-.44.52,2,2,0,0,0-.15.82,1.83,1.83,0,0,0,.16.81,1.12,1.12,0,0,0,.45.53,1.3,1.3,0,0,0,.7.18,1.36,1.36,0,0,0,.71-.17,1.17,1.17,0,0,0,.45-.46l.5.3a1.61,1.61,0,0,1-.39.47,1.49,1.49,0,0,1-.55.31A2.2,2.2,0,0,1,87.84,21.54Z" fill="#fff"/><path d="M90.79,21.46v-4h.52l.09.65a1.15,1.15,0,0,1,.49-.55,1.59,1.59,0,0,1,.79-.18h.22a1,1,0,0,1,.22.07L93,18,92.81,18h-.29a1,1,0,0,0-.5.14,1.12,1.12,0,0,0-.42.44,1.38,1.38,0,0,0-.17.74v2.16Z" fill="#fff"/></g></g></svg>