<svg xmlns="http://www.w3.org/2000/svg" viewBox="0 0 28.83 25.37"><g id="Layer_2" data-name="Layer 2"><g id="Layer_1-2" data-name="Layer 1"><path d="M28.43,14.14a1,1,0,0,0,.21-1.4L19.69.61C19.36.16,19-.09,18.78,0l-.32.23-.81.59L13.83,3.67a1,1,0,0,0-.21,1.4l.65.89a1,1,0,0,0,1.4.21l2-1.44a1,1,0,0,1,1.4.21l5.27,7.14a1,1,0,0,1-.21,1.4l-2,1.45a1,1,0,0,0-.21,1.39l.65.89a1,1,0,0,0,1.4.21l2-1.44,1.61-1.19Z" fill="#fff"/><path d="M21.55,17.74l-1.19-1.61-2.15-2.91L17,11.61l-.74-1a1,1,0,0,0-1.4-.21l-3.17,2.34a1,1,0,0,0-.21,1.39l.74,1a1,1,0,0,0,1.4.21l.7-.51a1,1,0,0,1,1.4.21l1.51,2.05a1,1,0,0,1-.21,1.4l-2.67,2a1,1,0,0,1-1.4-.21L4.81,9.2A1,1,0,0,1,5,7.8l2.68-2A1,1,0,0,1,9.1,6L11,8.61a1,1,0,0,0,1.4.21l.86-.64a1,1,0,0,0,.21-1.39l-1.9-2.57c-.32-.45-.59-.81-.59-.81l-.59-.8L9.54,1.47a1,1,0,0,0-1.4-.21L3,5.05l-.81.59-.8.6L.41,7a1,1,0,0,0-.22,1.4L1,9.5l1.19,1.61L12.45,25a1,1,0,0,0,1.39.21l1-.72a6.73,6.73,0,0,0,.78-.63,9.29,9.29,0,0,1,.78-.62l5.15-3.8A1,1,0,0,0,21.75,18Z" fill="#fff"/></g></g></svg>